<svg width="36" height="36" viewBox="0 0 36 36" fill="none" xmlns="http://www.w3.org/2000/svg">
<circle cx="18" cy="18" r="18" fill="#F0F0F0"/>
<g clip-path="url(#clip0_3972_1004)">
<path d="M17.9986 7L17.8457 7.52398V22.7287L17.9986 22.8826L24.9965 18.7107L17.9986 7Z" fill="#343434"/>
<path d="M17.9979 7L11 18.7107L17.9979 22.8826V15.5027V7Z" fill="#8C8C8C"/>
<path d="M17.9982 24.219L17.9121 24.3249V29.7411L17.9982 29.9949L25.0003 20.0492L17.9982 24.219Z" fill="#3C3C3B"/>
<path d="M17.9979 29.9948V24.2189L11 20.0491L17.9979 29.9948Z" fill="#8C8C8C"/>
<path d="M17.998 22.8826L24.9959 18.7108L17.998 15.5028V22.8826Z" fill="#141414"/>
<path d="M11 18.7108L17.9978 22.8826V15.5028L11 18.7108Z" fill="#393939"/>
</g>
<defs>
<clipPath id="clip0_3972_1004">
<rect width="14" height="23" fill="white" transform="translate(11 7)"/>
</clipPath>
</defs>
</svg>
