<svg width="36" height="36" viewBox="0 0 36 36" fill="none" xmlns="http://www.w3.org/2000/svg">
<g clip-path="url(#clip0_3972_1069)">
<path d="M18 36C27.9411 36 36 27.9411 36 18C36 8.05887 27.9411 0 18 0C8.05887 0 0 8.05887 0 18C0 27.9411 8.05887 36 18 36Z" fill="#6F41D8"/>
<path d="M23.7286 14.2796C23.3134 14.0377 22.7746 14.0377 22.3178 14.2796L19.0789 16.1404L16.8796 17.3531L13.6407 19.2127C13.2256 19.4557 12.6867 19.4557 12.2299 19.2127L9.65594 17.757C9.24082 17.5151 8.95057 17.0707 8.95057 16.5847V13.7137C8.95057 13.2289 9.19919 12.7845 9.65594 12.5415L12.1872 11.1263C12.6034 10.8832 13.1434 10.8832 13.6002 11.1263L16.1314 12.5415C16.5477 12.7845 16.8379 13.2289 16.8379 13.7137V15.5745L19.0373 14.3201V12.4605C19.0397 12.219 18.9751 11.9815 18.8506 11.7745C18.726 11.5676 18.5465 11.3992 18.3319 11.2883L13.6407 8.61975C13.2256 8.37675 12.6867 8.37675 12.2299 8.61975L7.45544 11.2883C7.2409 11.3992 7.06136 11.5676 6.93683 11.7745C6.81229 11.9815 6.74764 12.219 6.75007 12.4605V17.838C6.75007 18.324 6.99869 18.7684 7.45544 19.0114L12.2299 21.6799C12.6451 21.9218 13.1851 21.9218 13.6407 21.6799L16.8796 19.8596L19.0789 18.6064L22.3178 16.7872C22.7329 16.5442 23.2718 16.5442 23.7286 16.7872L26.2609 18.2025C26.6772 18.4444 26.9663 18.8888 26.9663 19.3748V22.2458C26.9663 22.7306 26.7188 23.175 26.2609 23.418L23.7297 24.8738C23.3134 25.1168 22.7734 25.1168 22.3178 24.8738L19.7854 23.4585C19.3692 23.2155 19.0789 22.7711 19.0789 22.2862V20.4255L16.8796 21.6799V23.5395C16.8796 24.0244 17.1282 24.4699 17.5849 24.7118L22.3594 27.3802C22.7746 27.6232 23.3134 27.6232 23.7702 27.3802L28.5447 24.7118C28.9598 24.4699 29.2501 24.0255 29.2501 23.5395V18.162C29.2525 17.9205 29.1878 17.683 29.0633 17.476C28.9388 17.2691 28.7592 17.1007 28.5447 16.9897L23.7297 14.2796H23.7286Z" fill="white"/>
</g>
<defs>
<clipPath id="clip0_3972_1069">
<rect width="36" height="36" fill="white"/>
</clipPath>
</defs>
</svg>
