<svg width="24" height="24" viewBox="0 0 24 24" fill="none" xmlns="http://www.w3.org/2000/svg">
<g clip-path="url(#clip0_3961_2177)">
<mask id="mask0_3961_2177" style="mask-type:luminance" maskUnits="userSpaceOnUse" x="0" y="0" width="24" height="24">
<path d="M0 0H24V24H0V0Z" fill="white"/>
</mask>
<g mask="url(#mask0_3961_2177)">
<mask id="mask1_3961_2177" style="mask-type:luminance" maskUnits="userSpaceOnUse" x="0" y="0" width="24" height="24">
<path d="M0 0H24V24H0V0Z" fill="white"/>
</mask>
<g mask="url(#mask1_3961_2177)">
<path d="M12.0003 22.0006C11.5399 22.0006 11.0794 21.8253 10.7289 21.4748L8.93796 19.6838C8.91057 19.6562 8.87799 19.6344 8.8421 19.6195C8.80621 19.6047 8.76772 19.5971 8.72887 19.5972H6.20143C5.20999 19.5972 4.40335 18.7906 4.40335 17.7991V15.2717C4.40345 15.2328 4.39585 15.1944 4.38099 15.1585C4.36612 15.1226 4.3443 15.09 4.31676 15.0626L2.52579 13.2716C1.82475 12.5706 1.82475 11.4299 2.52574 10.7288L4.31671 8.93765C4.34426 8.91026 4.3661 8.87769 4.38097 8.8418C4.39584 8.80592 4.40345 8.76745 4.40335 8.72861V6.20122C4.40335 5.20977 5.20999 4.40314 6.20143 4.40314H8.72887C8.76771 4.40325 8.80619 4.39565 8.84207 4.38079C8.87795 4.36592 8.91053 4.34409 8.93791 4.31654L10.7289 2.52552C11.0685 2.18587 11.52 1.99886 12.0004 1.99886C12.4806 1.99886 12.9322 2.18587 13.2718 2.52552L15.0628 4.31654C15.0902 4.34409 15.1227 4.36593 15.1586 4.3808C15.1945 4.39566 15.233 4.40325 15.2718 4.40314H17.7993C18.7908 4.40314 19.5974 5.20977 19.5974 6.20122V8.72861C19.5973 8.76744 19.6049 8.80592 19.6198 8.8418C19.6346 8.87768 19.6565 8.91026 19.684 8.93765L21.475 10.7287C22.176 11.4298 22.176 12.5705 21.475 13.2716L19.684 15.0626C19.6565 15.09 19.6346 15.1226 19.6198 15.1585C19.6049 15.1944 19.5973 15.2328 19.5974 15.2717V17.7991C19.5974 18.7906 18.7908 19.5972 17.7993 19.5972H15.2718C15.233 19.5971 15.1945 19.6047 15.1586 19.6195C15.1227 19.6344 15.0902 19.6562 15.0628 19.6837L13.2718 21.4748C12.9213 21.8253 12.4608 22.0006 12.0003 22.0006ZM6.20143 5.90553C6.12305 5.90564 6.04791 5.93682 5.99249 5.99225C5.93706 6.04768 5.90589 6.12283 5.9058 6.20122V8.72861C5.9058 9.20894 5.7187 9.66048 5.379 10.0001L3.58812 11.7911C3.53277 11.8466 3.50168 11.9218 3.50169 12.0002C3.5017 12.0785 3.5328 12.1537 3.58817 12.2092L5.3791 14.0003C5.7187 14.3398 5.9058 14.7914 5.9058 15.2717V17.7991C5.90589 17.8775 5.93706 17.9527 5.99249 18.0081C6.04791 18.0635 6.12305 18.0947 6.20143 18.0948H8.72887C9.20921 18.0948 9.66075 18.2818 10.0003 18.6215L11.7913 20.4124C11.8187 20.4399 11.8513 20.4618 11.8872 20.4766C11.923 20.4915 11.9615 20.4991 12.0004 20.499C12.0461 20.499 12.1341 20.4877 12.2094 20.4124L14.0004 18.6215C14.3399 18.2818 14.7915 18.0948 15.2718 18.0948H17.7993C17.8777 18.0947 17.9528 18.0635 18.0083 18.0081C18.0637 17.9527 18.0949 17.8775 18.095 17.7991V15.2717C18.095 14.7914 18.282 14.3399 18.6216 14.0003L20.4126 12.2092C20.468 12.1537 20.499 12.0785 20.499 12.0001C20.499 11.9218 20.468 11.8466 20.4126 11.7911L18.6216 9.99998C18.282 9.66038 18.095 9.20889 18.095 8.72861V6.20122C18.0949 6.12283 18.0637 6.04768 18.0083 5.99225C17.9528 5.93682 17.8777 5.90564 17.7993 5.90553H15.2718C14.7915 5.90553 14.3399 5.71848 14.0004 5.37883L12.2094 3.58786C12.182 3.56034 12.1494 3.53852 12.1136 3.52365C12.0777 3.50878 12.0392 3.50116 12.0004 3.50122C11.9546 3.50122 11.8666 3.5125 11.7913 3.58786L10.0003 5.37888C9.66075 5.71853 9.20921 5.90553 8.72887 5.90553H6.20143Z" fill="white"/>
<path d="M8.75121 16.0014C8.65254 16.0015 8.55481 15.9821 8.46365 15.9444C8.37248 15.9066 8.28968 15.8512 8.22 15.7813C7.92667 15.488 7.92667 15.0123 8.22 14.719L14.72 8.21894C15.0133 7.92562 15.4891 7.92562 15.7824 8.21894C16.0757 8.51232 16.0757 8.98795 15.7824 9.28133L9.28238 15.7813C9.21271 15.8512 9.12991 15.9066 9.03876 15.9444C8.9476 15.9821 8.84988 16.0015 8.75121 16.0014ZM9.00129 9.98405C8.96913 9.98405 8.93649 9.98218 8.90428 9.9793C8.87226 9.97589 8.84041 9.97107 8.80881 9.96485C8.77761 9.95813 8.74593 9.95045 8.71569 9.94085C8.68497 9.93173 8.6542 9.92069 8.62497 9.90869C8.59527 9.89621 8.56612 9.88245 8.53761 9.86746C8.50929 9.85258 8.48145 9.83573 8.45505 9.81797C8.42812 9.80021 8.40225 9.78101 8.37729 9.76085C8.35225 9.74028 8.32823 9.71851 8.30529 9.69562C8.28273 9.67306 8.26065 9.64901 8.24049 9.62405C8.22028 9.59909 8.20113 9.57322 8.18289 9.54634C8.16561 9.51946 8.14886 9.49161 8.13393 9.46329C8.11862 9.43545 8.10465 9.4057 8.09265 9.37642C8.08033 9.34671 8.06944 9.31644 8.06001 9.2857C8.05094 9.25498 8.04273 9.22373 8.03649 9.19205C8.0302 9.16085 8.02545 9.12873 8.02209 9.09658C8.01878 9.0649 8.01729 9.03221 8.01729 9.00005C8.01729 8.96789 8.01878 8.9353 8.02209 8.90314C8.02545 8.87146 8.0302 8.8393 8.03649 8.80762C8.04273 8.77642 8.05094 8.74469 8.06001 8.71397C8.06961 8.68373 8.08012 8.65301 8.09265 8.62373C8.10465 8.59397 8.11862 8.56474 8.13393 8.53642C8.14886 8.5081 8.16561 8.48021 8.18289 8.45381C8.20113 8.42693 8.22028 8.40101 8.24049 8.37605C8.26065 8.35109 8.28273 8.32661 8.30529 8.30405C8.35117 8.25856 8.40132 8.21758 8.45505 8.1817C8.48145 8.16394 8.50929 8.14762 8.53761 8.13226C8.56593 8.11738 8.59521 8.10346 8.62497 8.09146C8.6542 8.07898 8.68497 8.06789 8.71569 8.05877C8.74593 8.04965 8.77761 8.04153 8.80881 8.03529C8.84049 8.02905 8.87265 8.02421 8.90428 8.02085C8.96865 8.01413 9.03393 8.01413 9.09825 8.02085C9.12993 8.02421 9.16209 8.02905 9.19329 8.03529C9.22497 8.04153 9.25612 8.04965 9.28689 8.05877C9.31761 8.06789 9.34785 8.07898 9.37761 8.09146C9.40737 8.10346 9.43665 8.11738 9.46449 8.13226C9.49281 8.14762 9.52065 8.16394 9.54753 8.1817C9.57441 8.19946 9.60028 8.21913 9.62529 8.23929C9.65025 8.25945 9.6742 8.28149 9.69681 8.30405C9.74266 8.34962 9.78367 8.39981 9.81921 8.45381C9.83697 8.48021 9.85372 8.5081 9.86865 8.53642C9.88353 8.56474 9.89745 8.59397 9.90993 8.62373C9.92193 8.65301 9.93302 8.68373 9.94209 8.71397C9.95169 8.74469 9.95985 8.77642 9.96609 8.80762C9.97233 8.8393 9.97713 8.87146 9.98049 8.90314C9.9838 8.9353 9.98529 8.96789 9.98529 9.00005C9.98529 9.03221 9.9838 9.0649 9.98049 9.09658C9.97713 9.12873 9.97233 9.16085 9.96609 9.19205C9.95985 9.22373 9.95169 9.25498 9.94209 9.2857C9.93302 9.31642 9.92193 9.34666 9.90993 9.37642C9.89745 9.4057 9.88353 9.43545 9.86865 9.46329C9.83834 9.52015 9.80266 9.57398 9.76209 9.62405C9.74145 9.64901 9.7198 9.67306 9.69681 9.69562C9.6742 9.71866 9.65025 9.74021 9.62529 9.76085C9.60028 9.78101 9.57441 9.80021 9.54753 9.81797C9.52065 9.83573 9.49281 9.85258 9.46449 9.86746C9.43665 9.88234 9.40737 9.89621 9.37761 9.90869C9.34785 9.92069 9.31761 9.93173 9.28689 9.94085C9.25612 9.95045 9.22497 9.95813 9.19329 9.96485C9.16209 9.97109 9.12993 9.97594 9.09825 9.9793C9.06609 9.98218 9.03345 9.98405 9.00129 9.98405ZM15.0013 15.984C14.9691 15.984 14.9365 15.9822 14.9043 15.9793C14.8723 15.9759 14.8404 15.9711 14.8088 15.9648C14.7776 15.9586 14.7459 15.9504 14.7157 15.9408C14.685 15.9317 14.6542 15.9207 14.625 15.9087C14.5953 15.8962 14.5661 15.8825 14.5376 15.8675C14.5093 15.8526 14.4815 15.8357 14.4551 15.818C14.4281 15.8002 14.4023 15.781 14.3773 15.7608C14.3523 15.7402 14.3279 15.7187 14.3053 15.6956C14.2827 15.6731 14.2607 15.649 14.2405 15.624C14.2203 15.5991 14.2007 15.5732 14.1829 15.5463C14.1651 15.5195 14.1488 15.4916 14.1335 15.4633C14.1186 15.4355 14.1047 15.4057 14.0927 15.3764C14.0803 15.3467 14.0694 15.3164 14.06 15.2857C14.0509 15.255 14.0427 15.2237 14.0365 15.192C14.0302 15.1608 14.0255 15.1287 14.0221 15.0966C14.0188 15.0649 14.0173 15.0322 14.0173 15C14.0173 14.9679 14.0188 14.9353 14.0221 14.9031C14.0255 14.8715 14.0302 14.8393 14.0365 14.8076C14.0427 14.7764 14.0509 14.7447 14.06 14.7145C14.0696 14.6838 14.0801 14.653 14.0927 14.6237C14.1047 14.594 14.1186 14.5647 14.1335 14.5364C14.1488 14.5081 14.1651 14.4802 14.1829 14.4538C14.2007 14.4269 14.2203 14.4005 14.2405 14.376C14.2812 14.3258 14.327 14.28 14.3773 14.2393C14.4023 14.2191 14.4281 14.1995 14.4551 14.1817C14.4815 14.1639 14.5093 14.1476 14.5376 14.1323C14.5659 14.1174 14.5952 14.1035 14.625 14.0915C14.6542 14.079 14.685 14.0679 14.7157 14.0588C14.7459 14.0496 14.7776 14.0415 14.8088 14.0353C14.8405 14.0291 14.8727 14.0242 14.9043 14.0208C14.9687 14.0141 15.0339 14.0141 15.0983 14.0208C15.1299 14.0242 15.1621 14.0291 15.1933 14.0353C15.225 14.0415 15.2561 14.0496 15.2869 14.0588C15.3176 14.0679 15.3479 14.079 15.3776 14.0915C15.4074 14.1035 15.4367 14.1174 15.4645 14.1323C15.4928 14.1476 15.5207 14.1639 15.5475 14.1817C15.5744 14.1995 15.6003 14.2191 15.6253 14.2393C15.6503 14.2595 15.6742 14.2815 15.6968 14.304C15.7427 14.3496 15.7837 14.3998 15.8192 14.4538C15.837 14.4802 15.8537 14.5081 15.8687 14.5364C15.8835 14.5647 15.8975 14.594 15.9099 14.6237C15.9219 14.653 15.933 14.6838 15.9421 14.7145C15.9517 14.7447 15.9594 14.7764 15.9661 14.8076C15.9723 14.8393 15.9771 14.8715 15.9805 14.9031C15.9834 14.9353 15.9853 14.9679 15.9853 15C15.9853 15.0322 15.9834 15.0644 15.9805 15.0966C15.9771 15.1287 15.9723 15.1608 15.9661 15.192C15.9594 15.2237 15.9517 15.255 15.9421 15.2857C15.933 15.3164 15.9219 15.3467 15.9099 15.3764C15.8975 15.4057 15.8835 15.4355 15.8687 15.4633C15.8383 15.5202 15.8027 15.574 15.7621 15.624C15.7415 15.649 15.7198 15.6731 15.6968 15.6956C15.6742 15.7187 15.6503 15.7402 15.6253 15.7608C15.6003 15.781 15.5744 15.8002 15.5475 15.818C15.5207 15.8357 15.4928 15.8526 15.4645 15.8675C15.4367 15.8823 15.4074 15.8962 15.3776 15.9087C15.3479 15.9207 15.3176 15.9317 15.2869 15.9408C15.2561 15.9504 15.225 15.9586 15.1933 15.9648C15.1621 15.9711 15.1299 15.9759 15.0983 15.9793C15.0661 15.9822 15.0335 15.984 15.0013 15.984Z" fill="white"/>
</g>
</g>
</g>
<defs>
<clipPath id="clip0_3961_2177">
<rect width="24" height="24" fill="white"/>
</clipPath>
</defs>
</svg>
