<svg width="15" height="22" viewBox="0 0 15 22" fill="none" xmlns="http://www.w3.org/2000/svg">
<path d="M7.46126 7.59872C7.39051 7.62007 7.32562 7.65816 7.2718 7.70996C6.1845 8.75303 5.18072 9.71264 4.26046 10.5888C4.23963 10.6088 4.22314 10.633 4.21206 10.66C4.20098 10.6869 4.19557 10.716 4.19618 10.7453C4.19956 10.8588 4.261 10.9371 4.3805 10.98C5.20714 11.2743 6.00847 11.5641 6.78447 11.8492C6.81096 11.8591 6.83455 11.8758 6.85301 11.8977C6.87146 11.9196 6.88417 11.946 6.88993 11.9744C6.89569 12.0028 6.89431 12.0322 6.88592 12.0598C6.87754 12.0875 6.86242 12.1125 6.842 12.1325C5.84034 13.1049 4.83712 14.0662 3.83234 15.0166C3.77931 15.0663 3.70883 15.0623 3.62087 15.0044C3.5948 14.987 3.57514 14.9611 3.56502 14.9308C3.5549 14.9006 3.5549 14.8678 3.56502 14.8375L3.99136 13.5389C4.04889 13.3651 3.99363 13.2474 3.82558 13.186L0.125783 11.8336C0.0952546 11.8226 0.068002 11.8037 0.0466649 11.7788C0.0253279 11.7538 0.0106297 11.7236 0.00399448 11.6911C-0.00264078 11.6585 -0.000988194 11.6248 0.00879207 11.5931C0.0185723 11.5614 0.0361488 11.5329 0.0598186 11.5102L11.9597 0.0990637C12.0146 0.0460098 12.0845 0.0124855 12.1593 0.00344251C12.3229 -0.0162633 12.381 0.048632 12.3336 0.198129C11.5475 2.70383 10.7462 5.25819 9.92964 7.86119C9.87549 8.03273 9.93075 8.14804 10.0954 8.20712C11.45 8.70198 12.7334 9.17599 13.9458 9.62915C14.0113 9.65268 14.0693 9.69417 14.1134 9.74911C14.1343 9.7754 14.1448 9.80888 14.1426 9.84277C14.1404 9.87666 14.1257 9.90843 14.1016 9.93163C9.92738 13.9672 5.81918 17.9477 1.77695 21.8731C1.66982 21.9774 1.56662 22.0174 1.46735 21.9931C1.37147 21.9699 1.33876 21.9108 1.36921 21.8158L2.52468 18.1233C2.57038 17.977 2.65193 17.8453 2.7615 17.7408L9.92276 10.8809C9.9475 10.857 9.96587 10.827 9.97616 10.7938C9.98644 10.7606 9.98829 10.7252 9.98152 10.691C9.97481 10.657 9.95964 10.6254 9.93748 10.5993C9.91533 10.5731 9.88695 10.5533 9.85513 10.5418L7.31073 9.61199C7.25331 9.59106 7.20612 9.54789 7.17925 9.49169C7.15238 9.4355 7.14795 9.37074 7.16691 9.31124L7.64396 7.79358C7.65241 7.76715 7.65368 7.73885 7.64764 7.71174C7.6416 7.68462 7.62848 7.6597 7.60969 7.63968C7.59089 7.61965 7.56714 7.60527 7.54099 7.59809C7.51483 7.5909 7.48727 7.59118 7.46126 7.5989V7.59872Z" fill="#9DB2D2"/>
</svg>
