<svg width="16" height="16" viewBox="0 0 16 16" fill="none" xmlns="http://www.w3.org/2000/svg">
<path d="M2.45882 7.51533C2.39517 7.45518 2.3203 7.40816 2.23848 7.37695C2.15666 7.34574 2.0695 7.33095 1.98196 7.33343C1.89443 7.33591 1.80824 7.3556 1.72831 7.39138C1.64839 7.42717 1.5763 7.47835 1.51615 7.542C1.456 7.60564 1.40898 7.68051 1.37777 7.76233C1.34656 7.84415 1.33177 7.93132 1.33425 8.01885C1.33673 8.10639 1.35642 8.19258 1.39221 8.2725C1.42799 8.35242 1.47917 8.42452 1.54282 8.48466L7.54282 14.1513C7.6666 14.2684 7.83048 14.3336 8.00082 14.3336C8.17116 14.3336 8.33504 14.2684 8.45882 14.1513L14.4595 8.48466C14.5245 8.42491 14.577 8.35284 14.614 8.27262C14.6509 8.1924 14.6716 8.10564 14.6747 8.01738C14.6779 7.92911 14.6634 7.84111 14.6323 7.75847C14.6011 7.67583 14.5538 7.60021 14.4932 7.536C14.4326 7.47178 14.3598 7.42026 14.279 7.38441C14.1983 7.34857 14.1113 7.32912 14.023 7.3272C13.9347 7.32527 13.8469 7.34092 13.7647 7.37321C13.6825 7.40551 13.6075 7.45381 13.5442 7.51533L8.00082 12.75L2.45882 7.51533Z" fill="#161616"/>
</svg>
