<svg width="14" height="14" viewBox="0 0 14 14" fill="none" xmlns="http://www.w3.org/2000/svg">
<g clip-path="url(#clip0_3961_2230)">
<mask id="mask0_3961_2230" style="mask-type:luminance" maskUnits="userSpaceOnUse" x="0" y="0" width="14" height="14">
<path d="M0 0H14V14H0V0Z" fill="white"/>
</mask>
<g mask="url(#mask0_3961_2230)">
<mask id="mask1_3961_2230" style="mask-type:luminance" maskUnits="userSpaceOnUse" x="0" y="0" width="14" height="14">
<path d="M0 0H14V14H0V0Z" fill="white"/>
</mask>
<g mask="url(#mask1_3961_2230)">
<path d="M7.00024 6.12436C6.75821 6.12436 6.56204 6.32055 6.56204 6.56256V9.47926C6.56204 9.72126 6.75821 9.91746 7.00024 9.91746C7.24227 9.91746 7.43844 9.72126 7.43844 9.47926V6.56256C7.43844 6.32055 7.24227 6.12436 7.00024 6.12436ZM7.57298 4.55255C7.56934 4.53407 7.56458 4.51534 7.55898 4.49714C7.54778 4.46064 7.53315 4.42529 7.5153 4.39155C7.50636 4.37475 7.49654 4.35823 7.4859 4.34255C7.47542 4.32657 7.46412 4.31116 7.45202 4.29638C7.43973 4.28154 7.42682 4.26726 7.41338 4.25382C7.39997 4.24038 7.38538 4.22722 7.37054 4.21518C7.35598 4.20314 7.3403 4.19163 7.32462 4.18099C7.30862 4.1705 7.29217 4.1607 7.27534 4.15162C7.25851 4.14294 7.24118 4.13454 7.22354 4.12726C7.20618 4.11998 7.18798 4.11354 7.16978 4.10794C7.1516 4.10262 7.13282 4.09786 7.11434 4.09394C7.09562 4.09031 7.07674 4.08749 7.05778 4.08551C7.01942 4.08159 6.98075 4.08159 6.9427 4.08551C6.92394 4.08747 6.90462 4.0903 6.88614 4.09394C6.86738 4.09786 6.8489 4.10262 6.83042 4.10794C6.8125 4.11354 6.7943 4.11998 6.77666 4.12726C6.7593 4.13454 6.74166 4.14294 6.72514 4.15162C6.70834 4.16058 6.69182 4.17063 6.67586 4.18099C6.6599 4.19163 6.6445 4.20314 6.62966 4.21518C6.61485 4.22722 6.60051 4.24038 6.5871 4.25382C6.57366 4.26726 6.56075 4.28154 6.54846 4.29638C6.53639 4.31122 6.52494 4.32659 6.51458 4.34255C6.50394 4.35823 6.49411 4.37475 6.48515 4.39155C6.4673 4.42529 6.45269 4.46064 6.4415 4.49714C6.4359 4.51534 6.43114 4.53407 6.4275 4.55255C6.41979 4.59015 6.41594 4.62843 6.41602 4.66682C6.41593 4.70519 6.41978 4.74347 6.4275 4.78106C6.43114 4.79954 6.4359 4.8183 6.4415 4.8365C6.45269 4.87298 6.46731 4.90832 6.48515 4.94206C6.49411 4.95886 6.50394 4.97538 6.51458 4.99106C6.52494 5.00702 6.53639 5.02242 6.54846 5.03726C6.56075 5.0521 6.57366 5.06638 6.5871 5.07982C6.60051 5.09354 6.61485 5.10639 6.62966 5.11843C6.6445 5.13047 6.6599 5.14198 6.67586 5.15262C6.69182 5.16298 6.70834 5.17306 6.72514 5.18174C6.74166 5.1907 6.7593 5.1991 6.77666 5.20638C6.7943 5.21366 6.8125 5.22007 6.83042 5.22539C6.8489 5.23099 6.86738 5.23578 6.88614 5.2397C6.90462 5.24334 6.92394 5.24611 6.9427 5.24807C6.96174 5.25003 6.98103 5.25087 7.0001 5.25087C7.01914 5.25087 7.03848 5.25003 7.05778 5.24807C7.07654 5.24611 7.09558 5.24334 7.11434 5.2397C7.13302 5.23575 7.15152 5.23098 7.16978 5.22539C7.18798 5.22007 7.20618 5.21366 7.22354 5.20638C7.24118 5.1991 7.25851 5.1907 7.27534 5.18174C7.29214 5.17306 7.30866 5.16298 7.32462 5.15262C7.3403 5.14198 7.35598 5.13047 7.37054 5.11843C7.38538 5.10639 7.39997 5.09354 7.41338 5.07982C7.42682 5.06638 7.43973 5.0521 7.45202 5.03726C7.46406 5.02242 7.47554 5.00702 7.4859 4.99106C7.49654 4.97538 7.50636 4.95886 7.5153 4.94206C7.53315 4.90832 7.54777 4.87298 7.55898 4.8365C7.56458 4.8183 7.56934 4.79954 7.57298 4.78106C7.58069 4.74347 7.58454 4.70519 7.58446 4.66682C7.58453 4.62843 7.58069 4.59015 7.57298 4.55255Z" fill="#6E8FC2"/>
<path d="M12.8324 6.8591C12.7947 5.30124 12.1527 3.85129 11.0245 2.77631C9.89627 1.70136 8.41725 1.13014 6.85911 1.16774C3.64314 1.24547 1.09004 3.9251 1.16774 7.14104C1.24432 10.3093 3.84594 12.8341 6.99807 12.8341C7.0455 12.8341 7.09335 12.8335 7.14104 12.8324C10.357 12.7547 12.9101 10.075 12.8324 6.8591ZM7.11987 11.9563C7.07916 11.9572 7.03884 11.9577 6.99838 11.9577C4.31998 11.9577 2.10896 9.81201 2.04389 7.11987C1.97784 4.38701 4.14742 2.10994 6.88028 2.04389C6.92099 2.04291 6.96128 2.0424 7.00174 2.0424C9.68013 2.0424 11.8912 4.18816 11.9562 6.88027C12.0223 9.61313 9.8527 11.8902 7.11987 11.9563Z" fill="#6E8FC2"/>
</g>
</g>
</g>
<defs>
<clipPath id="clip0_3961_2230">
<rect width="14" height="14" fill="white"/>
</clipPath>
</defs>
</svg>
