<svg width="16" height="16" viewBox="0 0 16 16" fill="none" xmlns="http://www.w3.org/2000/svg">
<path d="M4.99958 12.1562C4.84065 12.1564 4.68712 12.0986 4.56771 11.9937L0.56771 8.4937C0.497358 8.4321 0.440982 8.35619 0.402357 8.27103C0.363732 8.18588 0.34375 8.09345 0.34375 7.99995C0.34375 7.90644 0.363732 7.81402 0.402357 7.72886C0.440982 7.64371 0.497358 7.56779 0.56771 7.5062L4.56771 4.0062C4.6987 3.89157 4.86986 3.83368 5.04354 3.84526C5.21722 3.85683 5.37918 3.93692 5.4938 4.06792C5.60843 4.19891 5.66632 4.37007 5.65474 4.54375C5.64317 4.71742 5.56308 4.87939 5.43208 4.99401L1.99615 7.99995L5.43177 11.0059C5.53233 11.0938 5.60366 11.2103 5.63625 11.3398C5.66884 11.4693 5.66114 11.6057 5.61416 11.7308C5.56719 11.8558 5.48318 11.9635 5.37336 12.0395C5.26355 12.1155 5.13315 12.1562 4.99958 12.1562ZM10.9996 12.1562C10.866 12.1563 10.7356 12.1157 10.6257 12.0397C10.5158 11.9637 10.4318 11.8559 10.3848 11.7309C10.3377 11.6059 10.33 11.4694 10.3626 11.3399C10.3952 11.2103 10.4665 11.0938 10.5671 11.0059L14.003 7.99995L10.5674 4.99401C10.4364 4.87939 10.3563 4.71742 10.3447 4.54375C10.3332 4.37007 10.3911 4.19891 10.5057 4.06792C10.6203 3.93692 10.7823 3.85683 10.9559 3.84526C11.1296 3.83368 11.3008 3.89157 11.4318 4.0062L15.4318 7.5062C15.5021 7.56779 15.5585 7.64371 15.5971 7.72886C15.6357 7.81402 15.6557 7.90644 15.6557 7.99995C15.6557 8.09345 15.6357 8.18588 15.5971 8.27103C15.5585 8.35619 15.5021 8.4321 15.4318 8.4937L11.4318 11.9937C11.3123 12.0987 11.1586 12.1565 10.9996 12.1562ZM6.49958 13.6562C6.39739 13.6562 6.29661 13.6323 6.20527 13.5864C6.11394 13.5406 6.03458 13.474 5.97352 13.3921C5.91245 13.3101 5.87137 13.2151 5.85354 13.1144C5.83571 13.0138 5.84164 12.9104 5.87083 12.8124L8.87083 2.81245C8.89343 2.72759 8.93283 2.64813 8.9867 2.57877C9.04056 2.50942 9.1078 2.45158 9.18443 2.40869C9.26106 2.36579 9.34551 2.33872 9.4328 2.32906C9.52008 2.3194 9.60841 2.32735 9.69257 2.35245C9.77672 2.37755 9.85498 2.41929 9.9227 2.47519C9.99043 2.53108 10.0463 2.60001 10.0869 2.67787C10.1275 2.75573 10.152 2.84095 10.1591 2.92849C10.1662 3.01602 10.1556 3.10408 10.128 3.18745L7.12802 13.1874C7.08767 13.3228 7.00472 13.4415 6.8915 13.526C6.77828 13.6104 6.64083 13.6561 6.49958 13.6562Z" fill="#44A386"/>
</svg>
