<svg width="59" height="57" viewBox="0 0 59 57" fill="none" xmlns="http://www.w3.org/2000/svg">
<path d="M29.4388 57C45.6976 57 58.8778 44.2398 58.8778 28.4999C58.8778 12.7599 45.6976 0 29.4388 0C13.1802 0 0 12.7599 0 28.4999C0 44.2398 13.1802 57 29.4388 57Z" fill="#D6E5FE"/>
<path d="M37.5825 1.10773L22.1522 23.0798L20.9776 24.7458L19.8029 23.0798L15.3388 16.6712H9.64135L14.1112 23.0798L18.1348 28.8116L14.7808 33.5654L6.12891 45.9046C7.1127 47.125 8.19698 48.2657 9.37121 49.3163L20.4841 33.5654L20.9658 32.8831L21.4416 33.5654L26.6045 40.9576H41.1126C42.7402 40.9581 44.3235 40.4425 45.6198 39.4893C46.9157 38.5363 47.8543 37.1984 48.2906 35.6801C48.7267 34.1621 48.6372 32.5472 48.0359 31.083C47.4343 29.6185 46.3536 28.3855 44.9597 27.572C45.6384 26.4785 46.0048 25.2301 46.0211 23.9545C46.0377 22.679 45.7039 21.4222 45.0536 20.3125C44.4034 19.2029 43.4605 18.2804 42.3209 17.6398C41.1817 16.9989 39.8869 16.6628 38.5692 16.6656H32.3843L42.2167 2.79659C40.7232 2.10986 39.1729 1.54495 37.5825 1.10773ZM38.5632 21.2431C39.2878 21.2431 39.9825 21.5218 40.4946 22.0176C41.0068 22.5134 41.2946 23.1859 41.2946 23.8872C41.2946 24.5886 41.0068 25.2611 40.4946 25.757C39.9825 26.2529 39.2878 26.5314 38.5632 26.5314H27.9908L26.3578 28.8456L27.9438 31.1203H41.1065C41.8311 31.1203 42.5257 31.3989 43.0379 31.8948C43.5501 32.3906 43.838 33.0631 43.838 33.7643C43.838 34.4657 43.5501 35.1382 43.0379 35.6342C42.5257 36.1301 41.8311 36.4085 41.1065 36.4085H29.1067L27.1331 33.5654L25.4121 31.1203L23.8205 28.8456L25.4299 26.5711L27.8615 23.1195L29.1537 21.2828H38.5516L38.5632 21.2431Z" fill="white"/>
</svg>
