<svg width="16" height="16" viewBox="0 0 16 16" fill="none" xmlns="http://www.w3.org/2000/svg">
<path d="M0.5 11C0.500414 11.3977 0.658582 11.779 0.939797 12.0602C1.22101 12.3414 1.6023 12.4996 2 12.5H6.18375L6.05875 13.5H4.5C4.36739 13.5 4.24021 13.5527 4.14645 13.6464C4.05268 13.7402 4 13.8674 4 14C4 14.1326 4.05268 14.2598 4.14645 14.3536C4.24021 14.4473 4.36739 14.5 4.5 14.5H11.5C11.6326 14.5 11.7598 14.4473 11.8536 14.3536C11.9473 14.2598 12 14.1326 12 14C12 13.8674 11.9473 13.7402 11.8536 13.6464C11.7598 13.5527 11.6326 13.5 11.5 13.5H9.94125L9.81625 12.5H14C14.3977 12.4996 14.779 12.3414 15.0602 12.0602C15.3414 11.779 15.4996 11.3977 15.5 11V9.5H0.5V11ZM8 10.5C8.09889 10.5 8.19556 10.5293 8.27779 10.5843C8.36001 10.6392 8.4241 10.7173 8.46194 10.8087C8.49978 10.9 8.50969 11.0006 8.49039 11.0975C8.4711 11.1945 8.42348 11.2836 8.35355 11.3536C8.28363 11.4235 8.19454 11.4711 8.09755 11.4904C8.00056 11.5097 7.90002 11.4998 7.80866 11.4619C7.7173 11.4241 7.63921 11.36 7.58427 11.2778C7.52932 11.1956 7.5 11.0989 7.5 11C7.5 10.8674 7.55268 10.7402 7.64645 10.6464C7.74021 10.5527 7.86739 10.5 8 10.5ZM15.5 2C15.4996 1.6023 15.3414 1.22101 15.0602 0.939797C14.779 0.658582 14.3977 0.500414 14 0.5H2C1.6023 0.500414 1.22101 0.658582 0.939797 0.939797C0.658582 1.22101 0.500414 1.6023 0.5 2V8H15.5V2Z" fill="#F2A91B"/>
</svg>
