<svg width="16" height="16" viewBox="0 0 16 16" fill="none" xmlns="http://www.w3.org/2000/svg">
<path d="M2.98438 3.24998H12.9844C13.1012 3.24992 13.2179 3.25733 13.3337 3.27216C13.2945 2.99647 13.1998 2.73158 13.0554 2.49347C12.9109 2.25537 12.7198 2.04897 12.4935 1.88673C12.2671 1.72449 12.0103 1.60976 11.7384 1.54947C11.4665 1.48918 11.1853 1.48457 10.9116 1.53591L2.6875 2.93998H2.67812C2.1619 3.03869 1.70283 3.33077 1.39469 3.75654C1.85894 3.42633 2.41467 3.24924 2.98438 3.24998ZM12.9844 3.99998H2.98438C2.45412 4.00056 1.94575 4.21146 1.5708 4.5864C1.19585 4.96135 0.984954 5.46972 0.984375 5.99998V12C0.984954 12.5302 1.19585 13.0386 1.5708 13.4136C1.94575 13.7885 2.45412 13.9994 2.98438 14H12.9844C13.5146 13.9994 14.023 13.7885 14.3979 13.4136C14.7729 13.0386 14.9838 12.5302 14.9844 12V5.99998C14.9838 5.46972 14.7729 4.96135 14.3979 4.5864C14.023 4.21146 13.5146 4.00056 12.9844 3.99998ZM11.5 9.99998C11.3022 9.99998 11.1089 9.94133 10.9444 9.83145C10.78 9.72157 10.6518 9.56539 10.5761 9.38266C10.5004 9.19993 10.4806 8.99887 10.5192 8.80489C10.5578 8.61091 10.653 8.43272 10.7929 8.29287C10.9327 8.15302 11.1109 8.05778 11.3049 8.01919C11.4989 7.98061 11.7 8.00041 11.8827 8.0761C12.0654 8.15178 12.2216 8.27996 12.3315 8.44441C12.4414 8.60886 12.5 8.8022 12.5 8.99998C12.5 9.26519 12.3946 9.51955 12.2071 9.70708C12.0196 9.89462 11.7652 9.99998 11.5 9.99998Z" fill="#5C83BD"/>
<path d="M1 8.10938V5C1 4.32281 1.375 3.1875 2.67656 2.94156C3.78125 2.73437 4.875 2.73438 4.875 2.73438C4.875 2.73438 5.59375 3.23438 5 3.23438C4.40625 3.23438 4.42188 4 5 4C5.57812 4 5 4.73438 5 4.73438L2.67188 7.375L1 8.10938Z" fill="#5C83BD"/>
</svg>
