<svg width="30" height="30" viewBox="0 0 30 30" fill="none" xmlns="http://www.w3.org/2000/svg">
<g clip-path="url(#clip0_3587_1933)">
<mask id="mask0_3587_1933" style="mask-type:luminance" maskUnits="userSpaceOnUse" x="0" y="0" width="30" height="30">
<path d="M0 0H30V30H0V0Z" fill="white"/>
</mask>
<g mask="url(#mask0_3587_1933)">
<mask id="mask1_3587_1933" style="mask-type:luminance" maskUnits="userSpaceOnUse" x="0" y="0" width="30" height="30">
<path d="M0 0H30V30H0V0Z" fill="white"/>
</mask>
<g mask="url(#mask1_3587_1933)">
<path d="M15.0006 18.1255C14.482 18.1255 14.0616 17.7062 14.0616 17.1877V17.1853C14.0616 15.7476 14.8349 14.4032 16.1302 13.5893C16.8279 13.1508 17.4007 12.1865 17.1076 11.0207C16.9201 10.2754 16.3113 9.64644 15.5926 9.4557C14.9134 9.2754 14.2416 9.40512 13.7011 9.82104C13.1377 10.2544 12.8146 10.9196 12.8146 11.6459C12.8146 12.1645 12.3942 12.5849 11.8756 12.5849C11.3569 12.5849 10.9365 12.1645 10.9365 11.6459C10.9365 10.3319 11.5269 9.1242 12.556 8.3325C13.5545 7.56444 14.8368 7.31226 16.0742 7.64052C17.454 8.00664 18.5745 9.15366 18.9289 10.5627C19.3816 12.3632 18.6585 14.2184 17.1294 15.1793C16.3844 15.6475 15.9396 16.3975 15.9396 17.1853C15.9396 17.7039 15.5193 18.1255 15.0006 18.1255ZM15.0004 22.4804C14.9608 22.4804 14.92 22.4779 14.8798 22.4743C14.8395 22.4701 14.7993 22.4641 14.7604 22.4563C14.6816 22.4399 14.6045 22.4164 14.53 22.3861C14.4934 22.3705 14.4568 22.3531 14.4214 22.3345C14.3858 22.3157 14.3511 22.2951 14.3176 22.2728C14.2842 22.2504 14.2517 22.2265 14.2204 22.2013C14.1891 22.1755 14.1592 22.1485 14.131 22.1197C14.1022 22.0915 14.0752 22.0616 14.0494 22.0304C13.9987 21.9678 13.9541 21.9004 13.9162 21.8293C13.8976 21.7939 13.8802 21.7573 13.8645 21.7207C13.8494 21.6836 13.836 21.6457 13.8244 21.6073C13.8126 21.5688 13.8026 21.5298 13.7944 21.4904C13.7865 21.4509 13.7805 21.411 13.7764 21.3709C13.7728 21.3313 13.7704 21.2906 13.7704 21.2504C13.7704 21.2102 13.7728 21.1694 13.7764 21.1292C13.7806 21.0896 13.7866 21.0493 13.7944 21.0097C13.8028 20.9707 13.8124 20.9317 13.8244 20.8933C13.8358 20.8549 13.8495 20.8165 13.8645 20.7799C13.8802 20.7427 13.8976 20.7061 13.9162 20.6707C13.9348 20.6353 13.9558 20.6005 13.978 20.5675C14.0225 20.5001 14.0737 20.4374 14.131 20.3804C14.1592 20.3522 14.1891 20.3245 14.2204 20.2993C14.2516 20.2741 14.2845 20.2495 14.3176 20.2273C14.3512 20.2051 14.386 20.1847 14.4214 20.1655C14.4568 20.1469 14.4934 20.1295 14.53 20.1145C14.5672 20.0989 14.605 20.0851 14.6434 20.0737C14.6818 20.0623 14.7214 20.0521 14.7604 20.0443C14.7993 20.0365 14.8395 20.0305 14.8798 20.0263C14.9602 20.0179 15.0412 20.0179 15.1216 20.0263C15.1612 20.0305 15.2014 20.0365 15.241 20.0443C15.28 20.0521 15.3195 20.0623 15.358 20.0737C15.3958 20.0851 15.4342 20.0989 15.4708 20.1145C15.508 20.1295 15.5445 20.1469 15.58 20.1655C15.6154 20.1847 15.6502 20.2051 15.6832 20.2273C15.7168 20.2495 15.7498 20.2741 15.7804 20.2993C15.8432 20.3502 15.9005 20.4075 15.9514 20.4704C15.9772 20.5016 16.0012 20.5339 16.0234 20.5675C16.0456 20.6005 16.066 20.6353 16.0852 20.6707C16.1038 20.7061 16.1212 20.7427 16.1362 20.7799C16.1518 20.8165 16.1656 20.8549 16.1769 20.8933C16.1889 20.9311 16.1986 20.9707 16.2064 21.0097C16.2148 21.0493 16.2208 21.0896 16.2244 21.1292C16.2286 21.1694 16.231 21.2102 16.231 21.2504C16.231 21.2906 16.2286 21.3313 16.2244 21.3709C16.2208 21.4111 16.2148 21.4514 16.2064 21.4904C16.1987 21.5299 16.1889 21.5689 16.1769 21.6073C16.1656 21.6457 16.1518 21.6835 16.1362 21.7207C16.1212 21.7573 16.1038 21.7939 16.0852 21.8293C16.066 21.8647 16.0456 21.8995 16.0234 21.9331C16.0012 21.9667 15.9772 21.9992 15.9514 22.0304C15.9262 22.0616 15.8986 22.0915 15.8704 22.1197C15.8422 22.1485 15.8116 22.1755 15.7804 22.2013C15.7498 22.2265 15.7168 22.2506 15.6832 22.2728C15.6502 22.295 15.6154 22.3159 15.58 22.3345C15.5445 22.3531 15.508 22.3705 15.4708 22.3861C15.4342 22.4011 15.3958 22.4149 15.358 22.4263C15.3195 22.4383 15.28 22.4479 15.241 22.4563C15.2014 22.4641 15.1612 22.4701 15.1216 22.4743C15.0814 22.4779 15.0406 22.4804 15.0004 22.4804Z" fill="#F2A91B"/>
<path d="M15.0007 27.5017C8.10728 27.5017 2.49902 21.8936 2.49902 15.0002C2.49902 8.10678 8.10728 2.49864 15.0007 2.49864C21.8941 2.49864 27.5022 8.10678 27.5022 15.0002C27.5022 21.8936 21.8941 27.5017 15.0007 27.5017ZM15.0006 4.37664C9.14276 4.37664 4.37708 9.14232 4.37708 15.0002C4.37708 20.858 9.14276 25.6237 15.0006 25.6237C20.8585 25.6237 25.6242 20.858 25.6242 15.0002C25.6242 9.14232 20.8585 4.37664 15.0006 4.37664Z" fill="#F2A91B"/>
</g>
</g>
</g>
<defs>
<clipPath id="clip0_3587_1933">
<rect width="30" height="30" fill="white"/>
</clipPath>
</defs>
</svg>
