<svg width="33" height="32" viewBox="0 0 33 32" fill="none" xmlns="http://www.w3.org/2000/svg">
<path fill-rule="evenodd" clip-rule="evenodd" d="M29.9367 25.178C29.9987 24.869 29.9107 24.549 29.7007 24.314C29.4897 24.08 29.1817 23.958 28.8677 23.986C28.7637 23.995 28.6587 24 28.5527 24C26.6207 24 25.0527 22.432 25.0527 20.5C25.0527 20.093 25.1217 19.702 25.2497 19.339C25.3547 19.041 25.3127 18.711 25.1377 18.449C24.9617 18.187 24.6727 18.023 24.3567 18.008C24.2567 18.003 24.1547 18 24.0527 18C20.7417 18 18.0527 20.689 18.0527 24C18.0527 27.311 20.7417 30 24.0527 30C26.9607 30 29.3887 27.926 29.9367 25.178ZM8.55273 3.946C7.73973 4.091 6.98573 4.412 6.33373 4.866L5.66373 4.197C5.27373 3.806 4.63973 3.806 4.24973 4.197C3.85873 4.587 3.85873 5.221 4.24973 5.611L4.91873 6.281C4.46473 6.933 4.14373 7.687 3.99873 8.5H3.05273C2.50073 8.5 2.05273 8.948 2.05273 9.5C2.05273 10.052 2.50073 10.5 3.05273 10.5H3.99873C4.14373 11.313 4.46473 12.067 4.91873 12.719L4.24973 13.389C3.85873 13.779 3.85873 14.413 4.24973 14.803C4.63973 15.194 5.27373 15.194 5.66373 14.803L6.33373 14.134C6.98573 14.588 7.73973 14.909 8.55273 15.054V16C8.55273 16.552 9.00073 17 9.55273 17C10.1047 17 10.5527 16.552 10.5527 16V15.054C11.3657 14.909 12.1197 14.588 12.7717 14.134L13.4417 14.803C13.8317 15.194 14.4657 15.194 14.8557 14.803C15.2467 14.413 15.2467 13.779 14.8557 13.389L14.1867 12.719C14.6407 12.067 14.9617 11.313 15.1067 10.5H16.0527C16.6047 10.5 17.0527 10.052 17.0527 9.5C17.0527 8.948 16.6047 8.5 16.0527 8.5H15.1067C14.9617 7.687 14.6407 6.933 14.1867 6.281L14.8557 5.611C15.2467 5.221 15.2467 4.587 14.8557 4.197C14.4657 3.806 13.8317 3.806 13.4417 4.197L12.7717 4.866C12.1197 4.412 11.3657 4.091 10.5527 3.946V3C10.5527 2.448 10.1047 2 9.55273 2C9.00073 2 8.55273 2.448 8.55273 3V3.946Z" fill="#9DB2D2"/>
<path fill-rule="evenodd" clip-rule="evenodd" d="M7.76021 27.707L27.7162 7.75099C28.1062 7.36099 28.1062 6.72699 27.7162 6.33699C27.3262 5.94699 26.6922 5.94699 26.3022 6.33699L6.34621 26.293C5.95621 26.683 5.95621 27.317 6.34621 27.707C6.73621 28.097 7.37021 28.097 7.76021 27.707Z" fill="#9DB2D2"/>
</svg>
