<svg width="12" height="12" viewBox="0 0 12 12" fill="none" xmlns="http://www.w3.org/2000/svg">
<path d="M6.36367 1.8435C6.40878 1.79577 6.44405 1.73961 6.46745 1.67825C6.49086 1.61689 6.50195 1.55151 6.5001 1.48586C6.49824 1.42021 6.48347 1.35557 6.45663 1.29562C6.42979 1.23568 6.39141 1.18161 6.34367 1.1365C6.29594 1.09139 6.23978 1.05613 6.17842 1.03272C6.11705 1.00931 6.05168 0.998221 5.98603 1.00008C5.92038 1.00194 5.85574 1.01671 5.79579 1.04354C5.73585 1.07038 5.68178 1.10877 5.63667 1.1565L1.38667 5.6565C1.2989 5.74934 1.25 5.87225 1.25 6C1.25 6.12776 1.2989 6.25067 1.38667 6.3435L5.63667 10.844C5.68148 10.8928 5.73554 10.9322 5.7957 10.9599C5.85587 10.9876 5.92094 11.0031 5.98713 11.0054C6.05333 11.0078 6.11934 10.997 6.18131 10.9736C6.24329 10.9502 6.30001 10.9148 6.34817 10.8693C6.39633 10.8238 6.43497 10.7692 6.46186 10.7087C6.48874 10.6481 6.50333 10.5829 6.50477 10.5166C6.50621 10.4504 6.49448 10.3846 6.47026 10.3229C6.44604 10.2613 6.40981 10.205 6.36367 10.1575L2.43767 6L6.36367 1.8435Z" fill="#9DB2D2"/>
</svg>
