<svg width="123" height="30" viewBox="0 0 123 30" fill="none" xmlns="http://www.w3.org/2000/svg">
<path fill-rule="evenodd" clip-rule="evenodd" d="M25.1166 4.62947L25.2709 5.59193C25.3866 6.4774 25.4445 7.36287 25.4252 8.26758C25.4252 10.2503 25.1937 12.2137 24.7308 14.1386C24.1135 16.7373 23.0332 19.2204 21.5478 21.4533C19.8309 23.9942 17.3424 26.4774 13.735 28.5178L13.2913 28.7681L12.8477 28.5178C9.24028 26.5159 6.75177 24.0135 5.03489 21.4533C3.53021 19.2204 2.46922 16.7565 1.85191 14.1386C1.38893 12.2137 1.15745 10.2503 1.15745 8.26758C1.15745 7.38212 1.19603 6.4774 1.31177 5.59193L1.44681 4.62947C1.4661 4.55247 1.4661 4.47547 1.44681 4.39848C1.42752 4.32148 1.40823 4.24448 1.35035 4.18673C1.31177 4.12899 1.2539 4.07124 1.19603 4.03274C1.13815 3.99424 1.06099 3.97499 1.00312 3.95574C0.925956 3.93649 0.848794 3.93649 0.771631 3.95574C0.694468 3.97499 0.617305 4.01349 0.559433 4.05199C0.50156 4.09049 0.443687 4.14824 0.405106 4.20598C0.366524 4.28298 0.347233 4.35998 0.327942 4.43697L0.173617 5.39944C0.0578726 6.34265 0 7.30512 0 8.26758C0 10.3465 0.250781 12.4062 0.73305 14.4274C1.06099 15.7941 1.50468 17.1415 2.06411 18.4312C2.62354 19.7209 3.29872 20.9529 4.08964 22.1271C5.90297 24.822 8.52652 27.4591 12.3075 29.538L13.0213 29.9423C13.1177 29.9808 13.2142 30 13.3106 30C13.4071 30 13.5035 29.9808 13.6 29.9423L14.3137 29.538C18.0754 27.4399 20.7183 24.8027 22.5316 22.1271C24.1135 19.7787 25.2516 17.1608 25.8882 14.4274C26.3705 12.4062 26.602 10.3465 26.602 8.26758C26.602 7.30512 26.5441 6.34265 26.4284 5.38019L26.274 4.41773C26.2547 4.34073 26.2354 4.26373 26.1969 4.18673C26.1583 4.12899 26.1004 4.07124 26.0425 4.03274C25.9847 3.99424 25.9075 3.95574 25.8303 3.9365C25.7532 3.91725 25.676 3.91725 25.5988 3.9365C25.5217 3.95574 25.4445 3.97499 25.3674 4.01349C25.3095 4.05199 25.2516 4.10974 25.213 4.16749C25.1744 4.22523 25.1359 4.30223 25.1166 4.37923V4.62947Z" fill="black"/>
<path fill-rule="evenodd" clip-rule="evenodd" d="M4.68813 3.97498L13.3304 1.26083L22.1463 4.03273C22.2234 4.05197 22.3006 4.05197 22.3778 4.05197C22.4549 4.05197 22.5321 4.03272 22.6092 3.99422C22.6864 3.95573 22.7443 3.91723 22.8022 3.84023C22.86 3.78248 22.8986 3.70549 22.8986 3.62849C22.9179 3.55149 22.9179 3.4745 22.9179 3.3975C22.9179 3.3205 22.8986 3.2435 22.86 3.16651C22.8214 3.08951 22.7829 3.03176 22.725 2.97401C22.6671 2.91627 22.59 2.87777 22.5128 2.87777L13.504 0.0288739C13.3883 -0.00962464 13.2725 -0.00962464 13.1568 0.0288739L4.36018 2.80077C4.28302 2.82002 4.22515 2.85852 4.14799 2.89702C4.09011 2.95476 4.03224 3.01251 4.01295 3.08951C3.97437 3.16651 3.95508 3.2435 3.95508 3.3205C3.95508 3.3975 3.95508 3.4745 3.97437 3.55149C3.99366 3.62849 4.03224 3.70549 4.07082 3.76323C4.1094 3.82098 4.18657 3.87873 4.26373 3.91723C4.3216 3.95573 4.39877 3.97498 4.49522 3.97498C4.5338 3.99423 4.61096 3.99423 4.68813 3.97498Z" fill="black"/>
<path fill-rule="evenodd" clip-rule="evenodd" d="M0.42402 4.80268L12.7894 29.6727C12.828 29.769 12.9051 29.846 12.9823 29.9037C13.1752 30.0192 13.4067 30.0192 13.5996 29.9037C13.6961 29.846 13.7732 29.769 13.8311 29.6727L21.3738 15.1395L21.3931 15.1203L26.2158 4.78343C26.2544 4.70643 26.2736 4.62943 26.2736 4.55244C26.2736 4.47544 26.2736 4.39844 26.2351 4.32145C26.2158 4.24445 26.1772 4.16745 26.1193 4.1097C26.0807 4.05195 26.0036 3.99421 25.9457 3.95571C25.8878 3.91721 25.8107 3.89796 25.7142 3.89796C25.6371 3.89796 25.5599 3.89796 25.4827 3.91721C25.4056 3.93646 25.3284 3.97496 25.2705 4.03271C25.2127 4.09045 25.1548 4.1482 25.1355 4.2252L20.3128 14.5621L13.291 28.0943L1.44643 4.2252C1.40785 4.16745 1.34998 4.09045 1.3114 4.03271C1.25352 3.97496 1.17636 3.93646 1.0992 3.91721C1.02203 3.87871 0.944871 3.87871 0.867708 3.89796C0.790545 3.89796 0.713382 3.91721 0.636219 3.95571C0.578347 3.99421 0.501184 4.05195 0.462602 4.1097C0.424021 4.16745 0.385439 4.24445 0.366148 4.32145C0.346857 4.39844 0.327567 4.47544 0.346858 4.55244C0.366149 4.64868 0.385438 4.72568 0.42402 4.80268Z" fill="black"/>
<path fill-rule="evenodd" clip-rule="evenodd" d="M6.34648 15.8903H20.1201C20.1973 15.8903 20.2744 15.871 20.3516 15.8518C20.4287 15.8325 20.4866 15.7748 20.5252 15.717C20.5831 15.6593 20.6216 15.6015 20.6409 15.5245C20.6988 15.3705 20.6988 15.2165 20.6409 15.0625C20.6216 14.9855 20.5638 14.9278 20.5252 14.87C20.4673 14.8123 20.4095 14.7738 20.3516 14.7353C20.2744 14.7161 20.1973 14.6968 20.1201 14.6968H6.34648C6.26932 14.6968 6.19216 14.7161 6.11499 14.7353C6.03783 14.7546 5.97996 14.8123 5.94138 14.87C5.8835 14.9278 5.84492 14.9855 5.82563 15.0625C5.76776 15.2165 5.76776 15.3705 5.82563 15.5245C5.84492 15.6015 5.8835 15.6593 5.94138 15.717C5.99925 15.7748 6.05712 15.8133 6.11499 15.8518C6.19216 15.871 6.26932 15.871 6.34648 15.8903ZM44.7351 10.7122H35.7842C35.707 10.7122 35.6299 10.7315 35.5527 10.7507C35.4755 10.77 35.4177 10.8277 35.3791 10.8854C35.3212 10.9432 35.2826 11.0009 35.2633 11.0779C35.244 11.1549 35.2248 11.2319 35.2248 11.3089V18.7199C35.2248 18.7969 35.244 18.8739 35.2633 18.9509C35.2826 19.0279 35.3212 19.0856 35.3791 19.1434C35.437 19.2011 35.4948 19.2396 35.5527 19.2781C35.6299 19.2974 35.707 19.3166 35.7842 19.3166H44.7351V20.5678H35.7842C35.6684 20.5678 35.5527 20.5486 35.437 20.5293C35.3212 20.5101 35.2055 20.4716 35.0897 20.4331C34.974 20.3946 34.8775 20.3368 34.7811 20.2791C34.6846 20.2021 34.6075 20.1251 34.511 20.0481C34.3374 19.8749 34.2216 19.6824 34.1252 19.4706C34.0866 19.3551 34.048 19.2396 34.0287 19.1241C34.0094 19.0086 33.9902 18.8932 33.9902 18.7777V11.3282C33.9902 11.2127 34.0094 11.0972 34.0287 10.9817C34.048 10.8662 34.0866 10.7507 34.1252 10.6352C34.1638 10.5197 34.2216 10.4042 34.2795 10.308C34.3374 10.2117 34.4145 10.1155 34.511 10.0385C34.5882 9.96148 34.6846 9.88449 34.7811 9.80749C34.8775 9.74974 34.974 9.69199 35.0897 9.65349C35.2055 9.61499 35.3212 9.57649 35.437 9.55724C35.5527 9.538 35.6684 9.51875 35.7842 9.51875H44.7351V10.7122ZM61.5374 9.461V10.7122H52.9144V14.3888H59.8398V15.6593H52.9144V19.3359H61.5374V20.5871H51.7184V9.461H61.5374Z" fill="black"/>
<path d="M79.3043 11.3474V14.6006C79.3043 14.7161 79.285 14.8316 79.2657 14.9471C79.2464 15.0625 79.2078 15.178 79.1693 15.2935C79.1307 15.409 79.0728 15.5245 79.0149 15.6208C78.9378 15.717 78.8799 15.8133 78.7834 15.8903C78.7063 15.9673 78.6098 16.0443 78.5134 16.1213C78.4169 16.179 78.3205 16.2368 78.2047 16.2753C78.089 16.3138 77.9732 16.3522 77.8575 16.3907C77.7417 16.41 77.626 16.4292 77.5102 16.4292H75.8705L79.2464 20.5678H77.626L74.2694 16.4292H70.3341C70.1412 16.4292 69.9483 16.41 69.7554 16.3715V20.5678H68.54V9.48026H77.5295C77.6453 9.48026 77.761 9.49951 77.8768 9.51876C77.9925 9.53801 78.1083 9.5765 78.224 9.615C78.3398 9.6535 78.4362 9.71125 78.5327 9.78824C78.7256 9.92299 78.8799 10.0962 79.0149 10.2887C79.0728 10.385 79.1307 10.5005 79.1693 10.616C79.2078 10.7315 79.2464 10.847 79.2657 10.9625C79.285 11.0972 79.3043 11.2319 79.3043 11.3474ZM70.3148 15.1973H77.5102C77.5874 15.1973 77.6646 15.178 77.7417 15.1588C77.8189 15.1395 77.8768 15.101 77.9154 15.0241C77.9732 14.9663 78.0118 14.9086 78.0311 14.8316C78.0504 14.7546 78.0697 14.6776 78.0697 14.6006V11.3474C78.0697 11.1934 78.0118 11.0394 77.9154 10.924C77.8189 10.8085 77.6646 10.7315 77.5102 10.7315H70.3148C70.2376 10.7315 70.1605 10.7507 70.0833 10.77C70.0061 10.7892 69.9483 10.847 69.9097 10.9047C69.8518 10.9624 69.8132 11.0202 69.7939 11.0972C69.7746 11.1742 69.7554 11.2512 69.7554 11.3282V14.5813C69.7554 14.7353 69.8132 14.8893 69.9483 15.0048C70.0254 15.1203 70.1798 15.1973 70.3148 15.1973Z" fill="black"/>
<path fill-rule="evenodd" clip-rule="evenodd" d="M85.748 9.461H96.5123V10.7122H91.7475V20.5678H90.5322V10.7122H85.748V9.461ZM103.071 20.5871V9.48025H104.286V20.5871H103.071ZM120.471 9.461H122.034L117.539 15.024L122.053 20.5871H120.471L116.459 15.6593H112.987V20.5871H111.771V9.48025H113.006V14.4081H116.478L120.471 9.461Z" fill="black"/>
</svg>
