<svg width="30" height="30" viewBox="0 0 30 30" fill="none" xmlns="http://www.w3.org/2000/svg">
<g clip-path="url(#clip0_3587_1965)">
<mask id="mask0_3587_1965" style="mask-type:luminance" maskUnits="userSpaceOnUse" x="0" y="0" width="30" height="30">
<path d="M0 0H30V30H0V0Z" fill="white"/>
</mask>
<g mask="url(#mask0_3587_1965)">
<mask id="mask1_3587_1965" style="mask-type:luminance" maskUnits="userSpaceOnUse" x="0" y="0" width="30" height="30">
<path d="M0 0H30V30H0V0Z" fill="white"/>
</mask>
<g mask="url(#mask1_3587_1965)">
<path d="M22.8131 27.5018H7.18812C5.9811 27.5018 4.99902 26.5198 4.99902 25.3128V4.68768C4.99902 3.48066 5.9811 2.4987 7.18812 2.4987H15.9381C16.4567 2.4987 16.8772 2.91912 16.8772 3.4377C16.8772 3.95628 16.4567 4.3767 15.9381 4.3767H7.18812C7.10567 4.37679 7.02662 4.40958 6.96831 4.46788C6.91 4.52618 6.87719 4.60522 6.87708 4.68768V25.3128C6.87719 25.3952 6.91 25.4743 6.96831 25.5326C7.02662 25.5909 7.10567 25.6237 7.18812 25.6238H22.8131C22.8956 25.6237 22.9746 25.5909 23.0329 25.5326C23.0912 25.4743 23.124 25.3952 23.1241 25.3128V11.5627C23.1241 11.0441 23.5445 10.6237 24.0631 10.6237C24.5818 10.6237 25.0022 11.0441 25.0022 11.5627V25.3128C25.0022 26.5198 24.0202 27.5018 22.8131 27.5018Z" fill="#F2A91B"/>
<path d="M24.0626 12.501H15.938C15.4194 12.501 14.999 12.0806 14.999 11.562V3.4374C14.999 3.25168 15.0541 3.07012 15.1573 2.91569C15.2605 2.76127 15.4071 2.64091 15.5787 2.56984C15.7503 2.49877 15.9391 2.48018 16.1213 2.51642C16.3034 2.55266 16.4707 2.6421 16.602 2.77344L24.7266 10.898C24.8579 11.0294 24.9473 11.1967 24.9836 11.3788C25.0198 11.561 25.0012 11.7498 24.9301 11.9213C24.8591 12.0929 24.7387 12.2396 24.5843 12.3427C24.4299 12.4459 24.2483 12.501 24.0626 12.501ZM16.8771 10.623H21.7956L16.8771 5.70438V10.623Z" fill="#F2A91B"/>
<path d="M18.2818 20.158H11.7193C11.2006 20.158 10.7803 19.7375 10.7803 19.219C10.7803 18.7004 11.2006 18.28 11.7193 18.28H18.2818C18.8005 18.28 19.2208 18.7004 19.2208 19.219C19.2208 19.7375 18.8005 20.158 18.2818 20.158Z" fill="#F2A91B"/>
</g>
</g>
</g>
<defs>
<clipPath id="clip0_3587_1965">
<rect width="30" height="30" fill="white"/>
</clipPath>
</defs>
</svg>
