<svg width="24" height="24" viewBox="0 0 24 24" fill="none" xmlns="http://www.w3.org/2000/svg">
<g clip-path="url(#clip0_3576_2062)">
<mask id="mask0_3576_2062" style="mask-type:luminance" maskUnits="userSpaceOnUse" x="0" y="0" width="24" height="24">
<path d="M0 0H24V24H0V0Z" fill="white"/>
</mask>
<g mask="url(#mask0_3576_2062)">
<mask id="mask1_3576_2062" style="mask-type:luminance" maskUnits="userSpaceOnUse" x="0" y="0" width="24" height="24">
<path d="M0 0H24V24H0V0Z" fill="white"/>
</mask>
<g mask="url(#mask1_3576_2062)">
<path d="M20.7052 19.1429L16.9457 15.3845C17.9166 14.0907 18.4985 12.4889 18.4985 10.7502C18.4985 6.47789 15.022 3.00144 10.7498 3.00144C6.47742 3.00144 3.00098 6.47789 3.00098 10.7502C3.00098 15.0225 6.47742 18.499 10.7498 18.499C12.5644 18.499 14.2312 17.868 15.553 16.8192L19.2914 20.5566C19.3841 20.6496 19.4943 20.7233 19.6156 20.7736C19.7369 20.8239 19.8669 20.8497 19.9983 20.8496C20.1296 20.8497 20.2596 20.8239 20.3809 20.7736C20.5022 20.7233 20.6124 20.6496 20.7052 20.5566C21.0961 20.1657 21.0961 19.5338 20.7052 19.1429ZM4.50074 10.7502C4.50074 7.30479 7.30427 4.5012 10.7498 4.5012C14.1952 4.5012 16.9987 7.30474 16.9987 10.7502C16.9987 14.1957 14.1952 16.9992 10.7498 16.9992C7.30432 16.9992 4.50074 14.1957 4.50074 10.7502Z" fill="#F2A91B"/>
</g>
</g>
</g>
<defs>
<clipPath id="clip0_3576_2062">
<rect width="24" height="24" fill="white"/>
</clipPath>
</defs>
</svg>
