<svg width="18" height="17" viewBox="0 0 18 17" fill="none" xmlns="http://www.w3.org/2000/svg">
<path d="M8.54597 1.17809C8.72468 0.790652 9.27532 0.790651 9.45403 1.17809L11.1329 4.81785C11.3514 5.29156 11.8003 5.61772 12.3184 5.67915L16.2988 6.15109C16.7225 6.20133 16.8926 6.72502 16.5794 7.0147L13.6366 9.73614C13.2536 10.0903 13.0821 10.6181 13.1837 11.1298L13.9649 15.0612C14.0481 15.4797 13.6026 15.8033 13.2303 15.5949L9.73266 13.6371C9.27745 13.3823 8.72255 13.3823 8.26734 13.6371L4.76971 15.5949C4.39741 15.8033 3.95193 15.4797 4.03508 15.0612L4.81625 11.1297C4.91792 10.6181 4.74644 10.0903 4.36344 9.73614L1.42062 7.0147C1.10737 6.72502 1.27752 6.20133 1.70122 6.15109L5.68164 5.67915C6.19968 5.61772 6.64861 5.29156 6.86711 4.81785L8.54597 1.17809Z" stroke="#B3C5E1"/>
</svg>
