<svg width="36" height="36" viewBox="0 0 36 36" fill="none" xmlns="http://www.w3.org/2000/svg">
<g clip-path="url(#clip0_3972_1057)">
<path d="M35.4615 22.3529C33.0566 32.0009 23.2816 37.8658 13.6474 35.4607C3.99907 33.0557 -1.86583 23.2812 0.539278 13.6471C2.94425 3.99908 12.705 -1.86583 22.3533 0.539279C31.9875 2.93019 37.8666 12.7047 35.4615 22.3529Z" fill="url(#paint0_linear_3972_1057)"/>
<path d="M26.5711 15.757C26.9227 13.3664 25.1086 12.0726 22.6055 11.2148L23.4211 7.96636L21.4523 7.47417L20.6648 10.6382C20.1445 10.5117 19.6102 10.3851 19.0758 10.2726L19.8633 7.09448L17.8945 6.60229L17.093 9.83667C16.657 9.73823 16.2352 9.63979 15.8273 9.54136V9.52729L13.0992 8.85229L12.5789 10.9617C12.5789 10.9617 14.0414 11.2992 14.0133 11.3132C14.8148 11.5101 14.9555 12.0445 14.9273 12.4664L13.9992 16.1648C14.0555 16.1789 14.1258 16.1929 14.2102 16.2351C14.1398 16.221 14.0695 16.207 13.9992 16.1789L12.7055 21.3539C12.607 21.5929 12.3539 21.9585 11.8055 21.8179C11.8195 21.846 10.3711 21.4664 10.3711 21.4664L9.38672 23.7304L11.9602 24.3773C12.4383 24.5039 12.9023 24.6164 13.3664 24.7429L12.5508 28.0195L14.5195 28.5117L15.3352 25.2632C15.8695 25.4039 16.4039 25.5445 16.9102 25.671L16.1086 28.9054L18.0773 29.3976L18.893 26.121C22.268 26.7539 24.7992 26.5007 25.8539 23.4492C26.7117 21.0023 25.8117 19.582 24.0398 18.6539C25.3477 18.3585 26.318 17.5007 26.5711 15.757ZM22.057 22.0851C21.4523 24.532 17.318 23.2101 15.982 22.8726L17.0648 18.5273C18.4008 18.8648 22.7039 19.5257 22.057 22.0851ZM22.6758 15.7148C22.1133 17.9507 18.682 16.8117 17.5711 16.5304L18.5555 12.5929C19.6664 12.8742 23.2523 13.3945 22.6758 15.7148Z" fill="white"/>
</g>
<defs>
<linearGradient id="paint0_linear_3972_1057" x1="1799.03" y1="-0.863999" x2="1799.03" y2="3599.64" gradientUnits="userSpaceOnUse">
<stop stop-color="#F9AA4B"/>
<stop offset="1" stop-color="#F7931A"/>
</linearGradient>
<clipPath id="clip0_3972_1057">
<rect width="36" height="36" fill="white"/>
</clipPath>
</defs>
</svg>
