<svg width="32" height="32" viewBox="0 0 32 32" fill="none" xmlns="http://www.w3.org/2000/svg">
<g clip-path="url(#clip0_3961_2276)">
<path d="M16 32C24.8366 32 32 24.8366 32 16C32 7.16344 24.8366 0 16 0C7.16344 0 0 7.16344 0 16C0 24.8366 7.16344 32 16 32Z" fill="#0088CC"/>
<path fill-rule="evenodd" clip-rule="evenodd" d="M11.5427 10.5714H20.5141C20.857 10.5714 21.1427 10.6286 21.4856 10.8C21.8856 10.9714 22.1141 11.2571 22.2284 11.4857C22.2284 11.4857 22.2284 11.5429 22.2856 11.5429C22.457 11.8286 22.5713 12.1714 22.5713 12.5714C22.5713 12.9143 22.5141 13.2571 22.2856 13.6L16.6284 23.3143C16.5141 23.5429 16.2856 23.6571 15.9999 23.6571C15.7713 23.6571 15.5427 23.5429 15.3713 23.3143L9.82843 13.6C9.71414 13.3714 9.48557 13.0857 9.48557 12.6286C9.42842 12.2286 9.54271 11.8857 9.71414 11.5429C9.88557 11.2 10.1713 10.9143 10.5713 10.8C10.9141 10.5714 11.3141 10.5714 11.5427 10.5714ZM15.3141 11.9429H11.5427C11.3141 11.9429 11.1999 11.9429 11.1427 12C11.0284 12.0571 10.9713 12.1143 10.9141 12.2286C10.857 12.2857 10.857 12.4 10.857 12.5143C10.857 12.5714 10.9141 12.6286 11.0284 12.8571L15.3141 20.2857V11.9429ZM16.6856 11.9429V20.3429L21.0284 12.8571C21.0856 12.7429 21.0856 12.6286 21.0856 12.5143C21.0856 12.4 21.0856 12.2857 21.0284 12.2286C20.9713 12.1714 20.9713 12.1143 20.9141 12.1143L20.857 12.0571C20.7427 12 20.6284 12 20.457 12H16.6856V11.9429Z" fill="white"/>
</g>
<defs>
<clipPath id="clip0_3961_2276">
<rect width="32" height="32" fill="white"/>
</clipPath>
</defs>
</svg>
