<svg width="205" height="32" viewBox="0 0 205 32" fill="none" xmlns="http://www.w3.org/2000/svg">
<g clip-path="url(#clip0_4133_1447)">
<mask id="mask0_4133_1447" style="mask-type:luminance" maskUnits="userSpaceOnUse" x="0" y="0" width="205" height="32">
<path d="M204.089 0H0V32H204.089V0Z" fill="white"/>
</mask>
<g mask="url(#mask0_4133_1447)">
<path d="M16.4632 31.8922C25.5557 31.8922 32.9265 24.7527 32.9265 15.946C32.9265 7.1393 25.5557 0 16.4632 0C7.37084 0 0 7.1393 0 15.946C0 24.7527 7.37084 31.8922 16.4632 31.8922Z" fill="black"/>
<path d="M21.0177 0.619781L12.3885 12.9134L11.7316 13.8456L11.0747 12.9134L8.57824 9.32772H5.39201L7.89173 12.9134L10.1418 16.1204L8.26618 18.7803L3.42773 25.6842C3.97791 26.367 4.58427 27.0052 5.24094 27.5931L11.4557 18.7803L11.725 18.3985L11.9911 18.7803L14.8784 22.9163H22.9918C23.902 22.9165 24.7874 22.6281 25.5124 22.0947C26.2371 21.5615 26.762 20.813 27.006 19.9635C27.2498 19.1141 27.1998 18.2106 26.8635 17.3913C26.5271 16.5719 25.9228 15.882 25.1432 15.4268C25.5228 14.815 25.7277 14.1165 25.7368 13.4028C25.7461 12.6891 25.5594 11.9859 25.1958 11.3651C24.8321 10.7443 24.3048 10.2281 23.6675 9.86968C23.0304 9.5111 22.3063 9.32301 21.5695 9.32461H18.1107L23.6093 1.56472C22.774 1.18049 21.9071 0.864412 21.0177 0.619781ZM21.5661 11.8858C21.9713 11.8858 22.3598 12.0417 22.6462 12.3191C22.9326 12.5965 23.0936 12.9728 23.0936 13.3651C23.0936 13.7576 22.9326 14.1339 22.6462 14.4114C22.3598 14.6888 21.9713 14.8446 21.5661 14.8446H15.6537L14.7404 16.1395L15.6274 17.4122H22.9884C23.3936 17.4122 23.7821 17.5681 24.0685 17.8455C24.3549 18.1229 24.5159 18.4992 24.5159 18.8915C24.5159 19.284 24.3549 19.6603 24.0685 19.9378C23.7821 20.2152 23.3936 20.371 22.9884 20.371H16.2777L15.174 18.7803L14.2115 17.4122L13.3215 16.1395L14.2215 14.8668L15.5813 12.9356L16.304 11.908H21.5596L21.5661 11.8858Z" fill="white"/>
<path d="M59.9043 8.71104H56.3206L53.5417 13.1908L50.7958 8.71104H47.1202L51.4133 15.6119L46.7588 23.1808H50.3983L53.5253 17.9122L56.7412 23.1808H60.3543L55.6212 15.5451L59.9043 8.71104ZM78.2989 15.5324C78.7203 15.1542 79.0511 14.6915 79.2684 14.1766C79.4859 13.6616 79.5842 13.1068 79.5572 12.5512C79.5243 9.94551 77.4057 8.69194 74.5512 8.71104H68.4415V23.1808H75.2508C78.0889 23.2095 80.1975 21.6314 80.2339 19.0957C80.2627 18.3899 80.0995 17.6891 79.7604 17.0636C79.4215 16.4381 78.9187 15.9101 78.3022 15.5324H78.2989ZM71.6967 11.3964H74.3245C75.7633 11.4376 76.4891 11.7144 76.558 12.8789C76.5087 14.0689 75.5201 14.5205 74.2587 14.5429H71.7231L71.6967 11.3964ZM76.568 19.9865C76.2133 20.3047 75.622 20.5115 74.6759 20.5115H71.6967V17.0118H74.7351C76.1115 17.0372 77.0344 17.5144 77.0705 18.8252C77.0789 19.0409 77.0383 19.2556 76.9522 19.4546C76.8659 19.6535 76.736 19.8318 76.5712 19.9771L76.568 19.9865ZM94.0496 8.72059L87.5293 23.1808H90.9454L91.9306 20.9124H97.9614L98.921 23.1808H102.416L95.8922 8.71104L94.0496 8.72059ZM93.0901 18.1284L94.9363 13.8047L96.7558 18.1284H93.0901ZM144.756 8.71104H140.743L136.252 14.3233V8.71104H132.99V23.1808H136.248V16.8177L141.622 23.1808H145.689L139.215 15.5451L144.756 8.71104ZM153.625 9.02924V23.1808H156.867V8.71104H153.625V9.02924ZM176.415 17.174L168.63 8.71104H166.748V23.1808H170.007V14.6065L177.867 23.1808H179.676V8.71104H176.415V17.174ZM120.245 17.174L112.46 8.71104H110.575V23.1808H113.837V14.6065L121.697 23.1808H123.504V8.71104H120.245V17.174ZM197.795 14.7752L195.565 17.5431H200.676C200.436 18.4309 199.904 19.2187 199.16 19.7867C198.415 20.3546 197.5 20.6716 196.554 20.6897C195.899 20.706 195.248 20.5955 194.64 20.3644C194.031 20.1333 193.475 19.7863 193.007 19.3442C192.538 18.9019 192.166 18.3732 191.911 17.7893C191.656 17.2053 191.526 16.578 191.526 15.9444C191.526 15.3107 191.656 14.6833 191.911 14.0995C192.166 13.5156 192.538 12.9869 193.007 12.5446C193.475 12.1023 194.031 11.7555 194.64 11.5244C195.248 11.2932 195.899 11.1826 196.554 11.199C197.836 11.2092 199.067 11.6888 200 12.5417L200.262 12.7771L202.232 10.3368L201.977 10.1396C200.439 8.92711 198.516 8.26528 196.534 8.26563C192.044 8.26563 188.348 11.5841 188.323 15.9268C188.295 20.2697 192.018 23.6358 196.534 23.6231C200.853 23.6231 204.109 20.0979 204.089 15.946V14.7752H197.795Z" fill="#161616"/>
</g>
</g>
<defs>
<clipPath id="clip0_4133_1447">
<rect width="204.343" height="32" fill="white"/>
</clipPath>
</defs>
</svg>
