<svg width="142" height="300" viewBox="0 0 142 300" fill="none" xmlns="http://www.w3.org/2000/svg">
<g opacity="0.3" clip-path="url(#clip0_3974_2492)">
<path fill-rule="evenodd" clip-rule="evenodd" d="M112 127C95.4306 127 82 113.569 82 97C82 80.4306 95.4306 67 112 67C128.569 67 142 80.4306 142 97C142 113.569 128.569 127 112 127ZM115.604 92.8619V88.4256H125.755V81.6606H98.1156V88.4256H108.267V92.86C100.017 93.2388 93.8125 94.8737 93.8125 96.8312C93.8125 98.7887 100.017 100.422 108.267 100.802V115.019H115.604V100.799C123.841 100.42 130.03 98.7869 130.03 96.8312C130.03 94.8756 123.841 93.2425 115.604 92.8619ZM115.604 99.5931V99.5894C115.398 99.6044 114.334 99.6681 111.962 99.6681C110.069 99.6681 108.736 99.6119 108.267 99.5894V99.595C100.977 99.2744 95.5356 98.005 95.5356 96.4862C95.5356 94.9694 100.977 93.7 108.267 93.3738V98.3312C108.743 98.365 110.108 98.4456 111.994 98.4456C114.257 98.4456 115.392 98.3519 115.604 98.3331V93.3775C122.879 93.7019 128.307 94.9713 128.307 96.4862C128.307 98.005 122.879 99.2706 115.604 99.5931Z" fill="#A479BC"/>
</g>
<circle cx="112" cy="195" r="30" fill="#A479BC"/>
<path d="M111.999 176.208L100.541 195.458L111.999 202.333L123.458 195.458L111.999 176.208ZM100.541 197.75L111.999 213.792L123.458 197.75L111.999 204.625L100.541 197.75Z" fill="white"/>
<g clip-path="url(#clip1_3974_2492)">
<path d="M60.1025 59.2548C56.0943 75.3348 39.8026 85.1097 23.7456 81.1011C7.66512 77.0929 -2.10972 60.8019 1.8988 44.7451C5.90708 28.6651 22.175 18.8903 38.2555 22.8988C54.3125 26.8836 64.1111 43.1746 60.1025 59.2548Z" fill="#A479BC"/>
<path d="M45.2832 48.2617C45.8691 44.2773 42.8457 42.1211 38.6738 40.6914L40.0332 35.2773L36.752 34.457L35.4395 39.7305C34.5723 39.5195 33.6816 39.3086 32.791 39.1211L34.1035 33.8242L30.8223 33.0039L29.4863 38.3945C28.7598 38.2305 28.0566 38.0664 27.377 37.9023V37.8789L22.8301 36.7539L21.9629 40.2695C21.9629 40.2695 24.4004 40.832 24.3535 40.8555C25.6895 41.1836 25.9238 42.0742 25.877 42.7773L24.3301 48.9414C24.4238 48.9648 24.541 48.9883 24.6816 49.0586C24.5645 49.0352 24.4473 49.0117 24.3301 48.9648L22.1738 57.5898C22.0098 57.9883 21.5879 58.5977 20.6738 58.3633C20.6973 58.4102 18.2832 57.7773 18.2832 57.7773L16.6426 61.5508L20.9316 62.6289C21.7285 62.8398 22.502 63.0273 23.2754 63.2383L21.916 68.6992L25.1973 69.5195L26.5566 64.1055C27.4473 64.3398 28.3379 64.5742 29.1816 64.7852L27.8457 70.1758L31.127 70.9961L32.4863 65.5352C38.1113 66.5898 42.3301 66.168 44.0879 61.082C45.5176 57.0039 44.0176 54.6367 41.0645 53.0898C43.2441 52.5977 44.8613 51.168 45.2832 48.2617ZM37.7598 58.8086C36.752 62.8867 29.8613 60.6836 27.6348 60.1211L29.4395 52.8789C31.666 53.4414 38.8379 54.543 37.7598 58.8086ZM38.791 48.1914C37.8535 51.918 32.1348 50.0195 30.2832 49.5508L31.9238 42.9883C33.7754 43.457 39.7519 44.3242 38.791 48.1914Z" fill="white"/>
</g>
<g clip-path="url(#clip2_3974_2492)">
<path d="M30 180C46.5685 180 60 166.569 60 150C60 133.431 46.5685 120 30 120C13.4315 120 0 133.431 0 150C0 166.569 13.4315 180 30 180Z" fill="#A479BC"/>
<path d="M39.5476 143.799C38.8557 143.396 37.9576 143.396 37.1964 143.799L31.7982 146.901L28.1326 148.922L22.7345 152.021C22.0426 152.426 21.1445 152.426 20.3832 152.021L16.0932 149.595C15.4014 149.192 14.9176 148.451 14.9176 147.641V142.856C14.9176 142.048 15.332 141.307 16.0932 140.902L20.312 138.544C21.0057 138.139 21.9057 138.139 22.667 138.544L26.8857 140.902C27.5795 141.307 28.0632 142.048 28.0632 142.856V145.957L31.7289 143.867V140.767C31.7329 140.365 31.6252 139.969 31.4176 139.624C31.21 139.279 30.9108 138.999 30.5532 138.814L22.7345 134.366C22.0426 133.961 21.1445 133.961 20.3832 134.366L12.4257 138.814C12.0682 138.999 11.7689 139.279 11.5614 139.624C11.3538 139.969 11.2461 140.365 11.2501 140.767V149.73C11.2501 150.54 11.6645 151.281 12.4257 151.686L20.3832 156.133C21.0751 156.536 21.9751 156.536 22.7345 156.133L28.1326 153.099L31.7982 151.011L37.1964 147.979C37.8882 147.574 38.7864 147.574 39.5476 147.979L43.7682 150.338C44.462 150.741 44.9439 151.481 44.9439 152.291V157.076C44.9439 157.884 44.5314 158.625 43.7682 159.03L39.5495 161.456C38.8557 161.861 37.9557 161.861 37.1964 161.456L32.9757 159.097C32.282 158.692 31.7982 157.952 31.7982 157.144V154.042L28.1326 156.133V159.233C28.1326 160.041 28.547 160.783 29.3082 161.186L37.2657 165.634C37.9576 166.039 38.8557 166.039 39.617 165.634L47.5745 161.186C48.2664 160.783 48.7501 160.042 48.7501 159.233V150.27C48.7542 149.867 48.6464 149.472 48.4388 149.127C48.2313 148.782 47.9321 148.501 47.5745 148.316L39.5495 143.799H39.5476Z" fill="white"/>
</g>
<g opacity="0.3" clip-path="url(#clip3_3974_2492)">
<path d="M30 278C46.5685 278 60 264.569 60 248C60 231.431 46.5685 218 30 218C13.4315 218 0 231.431 0 248C0 264.569 13.4315 278 30 278Z" fill="#A479BC"/>
<path fill-rule="evenodd" clip-rule="evenodd" d="M24.84 245.394H32.9288V249.68H24.84V258.714H29.9419C31.9612 258.714 33.6131 258.442 34.8994 257.894C36.1856 257.349 37.1944 256.593 37.9275 255.626C38.6773 254.62 39.1878 253.456 39.42 252.223C39.6909 250.832 39.8228 249.417 39.8137 248C39.8228 246.583 39.6909 245.168 39.42 243.778C39.188 242.544 38.6776 241.38 37.9275 240.374C37.1944 239.407 36.1838 238.651 34.8994 238.106C33.6131 237.558 31.9612 237.286 29.9419 237.286H24.84V245.396V245.394ZM19.6538 249.68H16.875V245.396H19.6538V233H31.9331C34.2019 233 36.165 233.394 37.8244 234.176C39.4838 234.961 40.8375 236.032 41.8894 237.391C42.9394 238.749 43.7212 240.339 44.2331 242.159C44.745 243.98 45 245.928 45 248C45.0129 249.973 44.7542 251.938 44.2313 253.841C43.7213 255.659 42.9394 257.251 41.8875 258.609C40.8375 259.968 39.4838 261.039 37.8244 261.824C36.165 262.608 34.2 263 31.9331 263H19.6538V249.68Z" fill="white"/>
</g>
<g opacity="0.3" clip-path="url(#clip4_3974_2492)">
<path d="M112 -31C95.4325 -31 82 -17.5675 82 -1C82 15.5675 95.4325 29 112 29C128.568 29 142 15.5675 142 -1C142 -17.5675 128.568 -31 112 -31ZM101.755 -14.2575H122.245C126.007 -14.2575 128.4 -10.1875 126.507 -6.9075L113.86 15.005C113.671 15.3309 113.4 15.6015 113.073 15.7896C112.747 15.9776 112.377 16.0766 112 16.0766C111.623 16.0766 111.253 15.9776 110.927 15.7896C110.6 15.6015 110.329 15.3309 110.14 15.005L97.4975 -6.9075C95.6025 -10.1925 97.99 -14.2575 101.755 -14.2575ZM113.865 -10.5175V8.4325L116.62 3.1125L123.26 -8.7775C123.362 -8.9551 123.415 -9.15639 123.414 -9.36103C123.413 -9.56567 123.357 -9.76641 123.254 -9.94295C123.151 -10.1195 123.002 -10.2656 122.824 -10.3665C122.646 -10.4674 122.445 -10.5195 122.24 -10.5175H113.865ZM101.75 -10.5125C101.546 -10.5147 101.345 -10.463 101.167 -10.3625C100.989 -10.2621 100.841 -10.1165 100.737 -9.94046C100.634 -9.76442 100.579 -9.56418 100.577 -9.35998C100.576 -9.15578 100.629 -8.95485 100.73 -8.7775L107.375 3.1075L110.13 8.4325V-10.5125H101.75Z" fill="#A479BC"/>
</g>
<g opacity="0.3" clip-path="url(#clip5_3974_2492)">
<path d="M112 263C128.569 263 142 276.431 142 293C142 309.569 128.569 323 112 323C95.4306 323 82 309.569 82 293C82 276.431 95.4306 263 112 263ZM112 272.375L94.1875 282.688V303.312L112 313.625L129.812 303.312V286.786L127.947 287.855V302.242L111.994 311.48L96.0344 302.242V283.766L112 274.512L124.261 281.619L126.113 280.55L112 272.375ZM113.768 284.158H104.866V286.889H113.763C114.179 286.884 114.592 286.965 114.976 287.128C115.358 287.289 115.707 287.527 115.996 287.823C116.295 288.115 116.532 288.464 116.693 288.849C116.854 289.234 116.936 289.648 116.933 290.066C116.926 290.909 116.596 291.721 116.003 292.321C115.711 292.62 115.362 292.857 114.978 293.021C114.593 293.184 114.18 293.27 113.763 293.274H104.866V302.255H107.532V295.998H112.872C113.951 296.005 115.025 295.843 116.054 295.516C117.094 295.076 117.984 294.344 118.617 293.409C119.301 292.429 119.665 291.261 119.658 290.066C119.647 288.502 119.023 287.005 117.919 285.897C116.819 284.793 115.327 284.167 113.768 284.158ZM116.862 297.254C115.966 297.576 115.029 297.77 114.079 297.828L116.479 302.028H119.592L116.862 297.254ZM127.928 281.626L126.087 282.695V284.866L127.928 285.89L129.766 284.866V282.695L127.928 281.626Z" fill="#A479BC"/>
</g>
<defs>
<clipPath id="clip0_3974_2492">
<rect width="60" height="60" fill="white" transform="translate(82 67)"/>
</clipPath>
<clipPath id="clip1_3974_2492">
<rect width="60" height="60" fill="white" transform="translate(1 22)"/>
</clipPath>
<clipPath id="clip2_3974_2492">
<rect width="60" height="60" fill="white" transform="translate(0 120)"/>
</clipPath>
<clipPath id="clip3_3974_2492">
<rect width="60" height="60" fill="white" transform="translate(0 218)"/>
</clipPath>
<clipPath id="clip4_3974_2492">
<rect width="60" height="60" fill="white" transform="translate(82 -31)"/>
</clipPath>
<clipPath id="clip5_3974_2492">
<rect width="60" height="60" fill="white" transform="translate(82 263)"/>
</clipPath>
</defs>
</svg>
